<svg xmlns="http://www.w3.org/2000/svg" viewBox="0 0 900 620" role="img" aria-labelledby="title desc"><title id="title">AURA visual</title><desc id="desc">Layered pink, violet and pearl motion sculpture with soft rings and sensor-inspired geometry.</desc><defs><linearGradient id="g" x1="0" y1="0" x2="1" y2="1"><stop stop-color="#ffe6f2"/><stop offset=".28" stop-color="#ff9dc9"/><stop offset=".6" stop-color="#f16eb6"/><stop offset=".84" stop-color="#9471ff"/><stop offset="1" stop-color="#5b47c5"/></linearGradient><linearGradient id="g2" x1="0" y1="0" x2="1" y2="0"><stop stop-color="#ffd1e5"/><stop offset=".48" stop-color="#ff72b7"/><stop offset="1" stop-color="#9f7bff"/></linearGradient><radialGradient id="glow"><stop stop-color="#ff91c8" stop-opacity=".72"/><stop offset="1" stop-color="#8d67ff" stop-opacity="0"/></radialGradient><filter id="shadow"><feDropShadow dx="0" dy="28" stdDeviation="26" flood-color="#9d477e" flood-opacity=".27"/></filter><filter id="blur"><feGaussianBlur stdDeviation="20"/></filter></defs><rect width="900" height="620" rx="34" fill="#241226"/><ellipse cx="178" cy="135" rx="260" ry="195" fill="url(#glow)" filter="url(#blur)" opacity=".8"/><g opacity=".16" stroke="#ffd8ed" stroke-width="1"><circle cx="700" cy="250" r="185"/><circle cx="700" cy="250" r="145"/><circle cx="700" cy="250" r="105"/><circle cx="700" cy="250" r="65"/></g><path d="M160 430C245 245 390 223 495 320s169 110 288-49" fill="none" stroke="url(#g)" stroke-width="94" stroke-linecap="round" filter="url(#shadow)"/><path d="M168 430C258 300 380 292 482 363s164 76 278-43" fill="none" stroke="#fff" stroke-opacity=".4" stroke-width="15" stroke-linecap="round"/><path d="M208 475C292 362 390 358 468 416s141 55 240-29" fill="none" stroke="url(#g2)" stroke-opacity=".76" stroke-width="8" stroke-linecap="round"/><g filter="url(#shadow)"><circle cx="278" cy="170" r="70" fill="#fff" fill-opacity=".06" stroke="#ffd9ea" stroke-opacity=".55"/><circle cx="278" cy="170" r="31" fill="#fff" fill-opacity=".16"/><circle cx="278" cy="170" r="8" fill="#fff" fill-opacity=".72"/><path d="M278 92v21M278 227v21M200 170h21M335 170h21" stroke="#fff" stroke-opacity=".42" stroke-width="3"/></g><g transform="rotate(-18 645 210)"><rect x="588" y="153" width="114" height="114" rx="18" fill="#fff" fill-opacity=".07" stroke="#ffd8ed" stroke-opacity=".55"/><path d="M605 210c35-48 67-48 99 0-32 48-64 48-99 0Z" fill="none" stroke="#fff" stroke-opacity=".35" stroke-width="3"/></g><text x="58" y="74" fill="#fff" fill-opacity=".62" font-size="18" font-family="system-ui" font-weight="700" letter-spacing="3">AURA / WELLNESS TECH</text><text x="60" y="548" fill="#fff" fill-opacity=".38" font-size="11" font-family="system-ui" letter-spacing="2">SENSE · DATA · EMOTION · MOTION</text></svg>