<svg xmlns="http://www.w3.org/2000/svg" viewBox="0 0 1000 700" role="img" aria-labelledby="title desc"><title id="title">MOTION Hero Visual</title><desc id="desc">Editorial three-dimensional motion scene with glass monitor, floating card, luminous ribbon and orbital geometry.</desc><defs><linearGradient id="bg" x1="0" y1="0" x2="1" y2="1"><stop stop-color="#edf9ff"/><stop offset=".42" stop-color="#d8e5ff"/><stop offset="1" stop-color="#f4dced"/></linearGradient><linearGradient id="ribbon" x1="0" y1="0" x2="1" y2="1"><stop stop-color="#63ddff"/><stop offset=".38" stop-color="#6c95ff"/><stop offset=".7" stop-color="#8671ff"/><stop offset="1" stop-color="#ef91d4"/></linearGradient><linearGradient id="glass" x1="0" y1="0" x2="1" y2="1"><stop stop-color="#ffffff" stop-opacity=".72"/><stop offset="1" stop-color="#b9d5ff" stop-opacity=".13"/></linearGradient><radialGradient id="glow"><stop stop-color="#72deff" stop-opacity=".92"/><stop offset=".48" stop-color="#8d67ff" stop-opacity=".28"/><stop offset="1" stop-color="#8d67ff" stop-opacity="0"/></radialGradient><filter id="shadow"><feDropShadow dx="0" dy="34" stdDeviation="28" flood-color="#486aa7" flood-opacity=".23"/></filter><filter id="soft"><feGaussianBlur stdDeviation="26"/></filter></defs><rect x="28" y="28" width="944" height="644" rx="42" fill="url(#bg)" stroke="#fff" stroke-opacity=".92" stroke-width="2"/><ellipse cx="755" cy="190" rx="250" ry="185" fill="url(#glow)" filter="url(#soft)"/><g opacity=".17" stroke="#5d769d" stroke-width="1"><path d="M85 535h830"/><path d="M135 500h730"/><path d="M185 465h630"/><path d="M240 430h520"/><path d="M295 395h410"/><path d="M350 360h300"/><path d="M405 325h190"/><path d="M205 205v330M280 165v370M355 140v395M430 120v415M505 112v423M580 125v410M655 148v387M730 180v355"/></g><path d="M220 420C302 277 442 253 535 335s164 124 299-50" fill="none" stroke="url(#ribbon)" stroke-width="78" stroke-linecap="round" filter="url(#shadow)"/><path d="M230 438C320 326 433 311 525 379s165 86 277-39" fill="none" stroke="#fff" stroke-opacity=".52" stroke-width="15" stroke-linecap="round"/><path d="M270 478C352 382 441 379 514 433s143 67 248-22" fill="none" stroke="#ffffff" stroke-opacity=".22" stroke-width="7" stroke-linecap="round"/><g filter="url(#shadow)" transform="rotate(29 290 205)"><rect x="235" y="150" width="110" height="110" rx="12" fill="url(#glass)" stroke="#7fa3de" stroke-opacity=".65"/><path d="M235 150l55-27 55 27-55 29z" fill="#fff" fill-opacity=".28"/><path d="M290 179v81" stroke="#fff" stroke-opacity=".35"/><path d="M235 150l55 29 55-29" fill="none" stroke="#fff" stroke-opacity=".42"/></g><g filter="url(#shadow)"><rect x="625" y="105" width="245" height="176" rx="26" fill="#fff" fill-opacity=".42" stroke="#fff" stroke-opacity=".92"/><rect x="645" y="129" width="205" height="132" rx="18" fill="#b9dcff" fill-opacity=".36"/><rect x="660" y="146" width="175" height="98" rx="14" fill="url(#glass)"/><circle cx="747" cy="194" r="27" fill="#1e3150" fill-opacity=".68"/><path d="M739 181l23 13-23 13z" fill="#fff"/></g><g fill="none" stroke="#fff" stroke-opacity=".42"><circle cx="704" cy="377" r="75"/><circle cx="704" cy="377" r="108" stroke-dasharray="8 12"/><circle cx="704" cy="377" r="140" stroke-opacity=".18"/></g><circle cx="704" cy="377" r="10" fill="#fff" fill-opacity=".7"/><text x="76" y="91" fill="#445470" fill-opacity=".72" font-size="19" font-family="system-ui" font-weight="750" letter-spacing="3">MOTION / DIGITAL FIRST</text><text x="78" y="628" fill="#54647d" fill-opacity=".5" font-size="11" font-family="system-ui" font-weight="650" letter-spacing="2">BRAND EXPERIENCE · INTERACTION · MOTION SYSTEM</text></svg>